<svg width="160" height="160" viewBox="0 0 160 160" fill="none" xmlns="http://www.w3.org/2000/svg">
<rect width="160" height="160" rx="17" fill="#086B5A"/>
<path d="M101.661 64.4505C100.518 46.734 93.343 29.462 79.881 16C66.292 29.589 58.799 46.861 57.3385 64.4505C65.4665 68.7685 72.9595 74.3565 79.5 81.151C86.0405 74.42 93.5335 68.832 101.661 64.4505ZM79.8175 36.2565C83.818 42.797 86.612 50.0995 88.0725 57.7195C85.088 59.6245 82.294 61.72 79.5635 63.9425C76.8965 61.7835 74.039 59.688 71.118 57.783C72.7055 50.163 75.6265 42.8605 79.8175 36.2565ZM79.5 101.407C74.293 93.47 67.689 86.5485 60.069 81.0875C59.2435 80.516 58.3545 80.0715 57.529 79.4365C58.3545 80.008 59.2435 80.516 60.0055 81.024C47.623 72.0705 32.4465 66.8 16 66.8C16 100.582 37.336 129.157 66.9905 139.761C70.991 141.222 75.182 142.301 79.5 143C83.818 142.238 87.9455 141.158 92.0095 139.761C121.664 129.157 143 100.582 143 66.8C116.457 66.8 93.1525 80.5795 79.5 101.407ZM87.882 127.76C85.088 128.713 82.294 129.474 79.4365 130.109C76.6425 129.538 73.912 128.776 71.3085 127.824C50.417 120.331 35.1135 102.487 30.351 81.151C37.336 82.802 44.0035 85.6595 50.163 89.5965L50.036 89.66C50.8615 90.2315 51.687 90.803 52.5125 91.2475L52.957 91.5015C59.2435 96.0735 64.641 101.725 68.8955 108.329L79.5 124.585L90.1045 108.392C94.486 101.725 99.947 96.01 106.17 91.5015L106.615 91.184C107.186 90.8665 107.758 90.4855 108.329 90.1045L108.266 89.9775C114.489 85.85 121.41 82.802 128.649 81.0875C123.886 102.487 108.646 120.331 87.882 127.76ZM60.3865 81.278C60.2595 81.2145 60.1325 81.0875 60.069 81.024C60.069 81.024 60.1325 81.024 60.1325 81.0875C60.196 81.151 60.2595 81.2145 60.3865 81.278Z" fill="white"/>
</svg>
